<svg width="760" height="560" viewBox="0 0 760 560" xmlns="http://www.w3.org/2000/svg">
  <defs>
    <linearGradient id="webAboutBg" x1="0" y1="0" x2="1" y2="1">
      <stop offset="0%" stop-color="#E5ECFD"/>
      <stop offset="100%" stop-color="#F3ECFB"/>
    </linearGradient>
  </defs>

  <rect width="760" height="560" rx="32" fill="url(#webAboutBg)"/>

  <rect x="220" y="150" width="320" height="240" rx="18" fill="#ffffff"/>
  <rect x="220" y="150" width="320" height="36" rx="18" fill="#EEF1FA"/>
  <circle cx="244" cy="168" r="6" fill="#FF6A5A"/>
  <circle cx="262" cy="168" r="6" fill="#F5C244"/>
  <circle cx="280" cy="168" r="6" fill="#3FCF6E"/>

  <g fill="#195DF0" fill-opacity="0.85">
    <rect x="244" y="208" width="80" height="12" rx="6"/>
    <rect x="244" y="232" width="140" height="12" rx="6"/>
    <rect x="244" y="256" width="100" height="12" rx="6"/>
  </g>
  <g fill="#8152E0" fill-opacity="0.7">
    <rect x="244" y="290" width="220" height="70" rx="10"/>
  </g>

  <g>
    <rect x="60" y="70" width="190" height="60" rx="18" fill="#ffffff"/>
    <circle cx="90" cy="100" r="13" fill="#195DF0"/>
    <text x="114" y="106" font-family="Arial, sans-serif" font-size="17" font-weight="600" fill="#0D1526">Fast Performance</text>
  </g>

  <g>
    <rect x="510" y="70" width="190" height="60" rx="18" fill="#ffffff"/>
    <circle cx="540" cy="100" r="13" fill="#8152E0"/>
    <text x="564" y="106" font-family="Arial, sans-serif" font-size="17" font-weight="600" fill="#0D1526">CMS Integration</text>
  </g>

  <g>
    <rect x="40" y="420" width="220" height="60" rx="18" fill="#ffffff"/>
    <circle cx="70" cy="450" r="13" fill="#2DB470"/>
    <text x="94" y="456" font-family="Arial, sans-serif" font-size="17" font-weight="600" fill="#0D1526">E-commerce Ready</text>
  </g>

  <g>
    <rect x="500" y="420" width="220" height="60" rx="18" fill="#ffffff"/>
    <circle cx="530" cy="450" r="13" fill="#F49308"/>
    <text x="554" y="456" font-family="Arial, sans-serif" font-size="17" font-weight="600" fill="#0D1526">Fixed-Price Delivery</text>
  </g>
</svg>
