<svg width="600" height="580" viewBox="0 0 600 580" xmlns="http://www.w3.org/2000/svg">
  <defs>
    <linearGradient id="webHeroBg" x1="0" y1="0" x2="1" y2="1">
      <stop offset="0%" stop-color="#195DF0"/>
      <stop offset="100%" stop-color="#8152E0"/>
    </linearGradient>
  </defs>

  <rect x="20" y="40" width="560" height="500" rx="56" fill="url(#webHeroBg)"/>

  <rect x="120" y="150" width="360" height="260" rx="18" fill="#ffffff"/>
  <rect x="120" y="150" width="360" height="38" rx="18" fill="#EEF1FA"/>
  <circle cx="146" cy="169" r="6" fill="#FF6A5A"/>
  <circle cx="166" cy="169" r="6" fill="#F5C244"/>
  <circle cx="186" cy="169" r="6" fill="#3FCF6E"/>

  <g fill="#195DF0" fill-opacity="0.85">
    <rect x="148" y="212" width="90" height="12" rx="6"/>
    <rect x="148" y="238" width="150" height="12" rx="6"/>
    <rect x="148" y="264" width="110" height="12" rx="6"/>
  </g>
  <g fill="#8152E0" fill-opacity="0.7">
    <rect x="148" y="300" width="70" height="12" rx="6"/>
    <rect x="228" y="300" width="70" height="12" rx="6"/>
  </g>
  <path d="M330 220 L300 250 L330 280" stroke="#195DF0" stroke-width="6" stroke-linecap="round" stroke-linejoin="round" fill="none"/>
  <path d="M362 220 L392 250 L362 280" stroke="#8152E0" stroke-width="6" stroke-linecap="round" stroke-linejoin="round" fill="none"/>

  <g>
    <rect x="52" y="90" width="180" height="56" rx="16" fill="#ffffff"/>
    <circle cx="80" cy="118" r="12" fill="#195DF0"/>
    <text x="102" y="123" font-family="Arial, sans-serif" font-size="16" font-weight="600" fill="#0D1526">React &amp; Next.js</text>
  </g>

  <g>
    <rect x="372" y="440" width="200" height="56" rx="16" fill="#ffffff"/>
    <circle cx="400" cy="468" r="12" fill="#F49308"/>
    <text x="422" y="473" font-family="Arial, sans-serif" font-size="16" font-weight="600" fill="#0D1526">SEO Built-In</text>
  </g>

  <g>
    <rect x="30" y="430" width="220" height="56" rx="16" fill="#ffffff"/>
    <circle cx="58" cy="458" r="12" fill="#2DB470"/>
    <text x="80" y="463" font-family="Arial, sans-serif" font-size="16" font-weight="600" fill="#0D1526">Responsive Design</text>
  </g>
</svg>
